<svg id="Layer_1" data-name="Layer 1" xmlns="http://www.w3.org/2000/svg" viewBox="0 0 224.76 29.15"><defs><style>.cls-1{fill:#d8382e;}.cls-2{fill:#fd6a0b;}.cls-3{fill:#f1f1f1;}.cls-4{fill:#f2df91;}.cls-5{fill:#f04f08;}.cls-6{fill:#d3d3d3;}.cls-7{fill:#ffa93e;}.cls-8{fill:#ff8b25;}.cls-9{fill:#f9c467;}.cls-10{fill:#c62832;}.cls-11{fill:#8a1739;}.cls-12{fill:#af1c43;}.cls-13{font-size:9px;fill:#a6a8ab;font-family:Georgia;letter-spacing:-0.07em;}.cls-14{fill:none;stroke:#bbbdbf;stroke-miterlimit:10;stroke-width:0.35px;}</style></defs><rect class="cls-1" x="146.19" y="4.79" width="15.83" height="9"/><rect class="cls-2" x="114.53" y="4.79" width="15.83" height="9"/><rect class="cls-3" x="7.04" y="4.79" width="15.83" height="9"/><rect class="cls-4" x="51.21" y="4.79" width="15.83" height="9"/><rect class="cls-5" x="130.36" y="4.79" width="15.83" height="9"/><rect class="cls-6" x="35.38" y="4.79" width="15.83" height="9"/><rect class="cls-7" x="82.87" y="4.79" width="15.83" height="9"/><rect class="cls-8" x="98.7" y="4.79" width="15.83" height="9"/><rect class="cls-9" x="67.04" y="4.79" width="15.83" height="9"/><rect class="cls-10" x="162.13" y="4.79" width="15.83" height="9"/><rect class="cls-11" x="193.69" y="4.79" width="15.83" height="9"/><rect class="cls-12" x="177.86" y="4.79" width="15.83" height="9"/><text class="cls-13" transform="translate(200.57 20.9)">100%</text><line class="cls-14" x1="209.76" y1="14.79" x2="209.76" y2="4.79"/><line class="cls-14" x1="177.96" y1="14.79" x2="177.96" y2="4.79"/><line class="cls-14" x1="51.21" y1="14.79" x2="51.21" y2="4.79"/><line class="cls-14" x1="82.87" y1="14.79" x2="82.87" y2="4.79"/><line class="cls-14" x1="114.53" y1="14.79" x2="114.53" y2="4.79"/><line class="cls-14" x1="146.24" y1="14.79" x2="146.24" y2="4.79"/><text class="cls-13" transform="translate(173.5 20.9)">80</text><text class="cls-13" transform="translate(142.44 20.9)">60</text><text class="cls-13" transform="translate(109.92 20.9)">40</text><text class="cls-13" transform="translate(77.82 20.89)">20</text><text class="cls-13" transform="translate(49.21 20.9)">5</text><line class="cls-14" x1="35" y1="14.79" x2="35" y2="4.79"/><text class="cls-13" transform="translate(32.38 20.9)">0</text><text class="cls-13" transform="translate(1.4 20.9)">No data</text></svg>